<svg width="91" height="12" viewBox="0 0 91 12" fill="none" xmlns="http://www.w3.org/2000/svg">
<path d="M5.84399 9.12L5.24399 7.128H2.44799L1.84799 9.12H-5.47618e-06L2.75999 0.744003H5.01599L7.73999 9.12H5.84399ZM3.86399 2.4H3.80399L2.87999 5.58H4.79999L3.86399 2.4ZM10.4282 9.12C9.81218 9.12 9.34418 8.964 9.02418 8.652C8.71218 8.34 8.55618 7.884 8.55618 7.284V4.2H7.66818V2.82H8.11218C8.35218 2.82 8.51618 2.764 8.60418 2.652C8.69218 2.532 8.73618 2.364 8.73618 2.148V1.116H10.3322V2.82H11.5802V4.2H10.3322V7.74H11.4842V9.12H10.4282ZM14.9631 9.264C14.4991 9.264 14.0831 9.188 13.7151 9.036C13.3551 8.884 13.0471 8.664 12.7911 8.376C12.5431 8.088 12.3511 7.74 12.2151 7.332C12.0791 6.924 12.0111 6.468 12.0111 5.964C12.0111 5.46 12.0791 5.004 12.2151 4.596C12.3511 4.188 12.5431 3.844 12.7911 3.564C13.0471 3.276 13.3551 3.056 13.7151 2.904C14.0831 2.752 14.4991 2.676 14.9631 2.676C15.4271 2.676 15.8391 2.752 16.1991 2.904C16.5671 3.056 16.8751 3.276 17.1231 3.564C17.3791 3.844 17.5751 4.188 17.7111 4.596C17.8471 5.004 17.9151 5.46 17.9151 5.964C17.9151 6.468 17.8471 6.924 17.7111 7.332C17.5751 7.74 17.3791 8.088 17.1231 8.376C16.8751 8.664 16.5671 8.884 16.1991 9.036C15.8391 9.188 15.4271 9.264 14.9631 9.264ZM14.9631 7.86C15.3151 7.86 15.5871 7.752 15.7791 7.536C15.9711 7.32 16.0671 7.012 16.0671 6.612V5.328C16.0671 4.928 15.9711 4.62 15.7791 4.404C15.5871 4.188 15.3151 4.08 14.9631 4.08C14.6111 4.08 14.3391 4.188 14.1471 4.404C13.9551 4.62 13.8591 4.928 13.8591 5.328V6.612C13.8591 7.012 13.9551 7.32 14.1471 7.536C14.3391 7.752 14.6111 7.86 14.9631 7.86ZM18.8205 9.12V2.82H20.5965V3.888H20.6685C20.7805 3.552 20.9725 3.268 21.2445 3.036C21.5165 2.796 21.8885 2.676 22.3605 2.676C22.7925 2.676 23.1605 2.784 23.4645 3C23.7685 3.216 23.9885 3.532 24.1245 3.948H24.1605C24.2165 3.772 24.3005 3.608 24.4125 3.456C24.5325 3.296 24.6765 3.16 24.8445 3.048C25.0125 2.936 25.2005 2.848 25.4085 2.784C25.6165 2.712 25.8405 2.676 26.0805 2.676C26.6885 2.676 27.1525 2.892 27.4725 3.324C27.8005 3.756 27.9645 4.372 27.9645 5.172V9.12H26.1885V5.316C26.1885 4.516 25.9005 4.116 25.3245 4.116C25.0605 4.116 24.8205 4.192 24.6045 4.344C24.3885 4.496 24.2805 4.728 24.2805 5.04V9.12H22.5045V5.316C22.5045 4.516 22.2165 4.116 21.6405 4.116C21.5125 4.116 21.3845 4.136 21.2565 4.176C21.1365 4.208 21.0245 4.264 20.9205 4.344C20.8245 4.424 20.7445 4.524 20.6805 4.644C20.6245 4.756 20.5965 4.888 20.5965 5.04V9.12H18.8205ZM30.0712 2.148C29.7112 2.148 29.4472 2.068 29.2792 1.908C29.1192 1.74 29.0392 1.528 29.0392 1.272V1.008C29.0392 0.752002 29.1192 0.544003 29.2792 0.384002C29.4472 0.216002 29.7112 0.132003 30.0712 0.132003C30.4312 0.132003 30.6912 0.216002 30.8512 0.384002C31.0192 0.544003 31.1032 0.752002 31.1032 1.008V1.272C31.1032 1.528 31.0192 1.74 30.8512 1.908C30.6912 2.068 30.4312 2.148 30.0712 2.148ZM29.1832 2.82H30.9592V9.12H29.1832V2.82ZM34.8007 9.264C34.3287 9.264 33.9087 9.188 33.5407 9.036C33.1727 8.876 32.8647 8.656 32.6167 8.376C32.3687 8.088 32.1807 7.74 32.0527 7.332C31.9247 6.924 31.8607 6.468 31.8607 5.964C31.8607 5.46 31.9247 5.008 32.0527 4.608C32.1807 4.2 32.3687 3.852 32.6167 3.564C32.8647 3.276 33.1727 3.056 33.5407 2.904C33.9087 2.752 34.3287 2.676 34.8007 2.676C35.4407 2.676 35.9727 2.82 36.3967 3.108C36.8287 3.396 37.1367 3.8 37.3207 4.32L35.8807 4.944C35.8247 4.704 35.7087 4.5 35.5327 4.332C35.3567 4.164 35.1127 4.08 34.8007 4.08C34.4407 4.08 34.1687 4.2 33.9847 4.44C33.8007 4.672 33.7087 4.988 33.7087 5.388V6.564C33.7087 6.964 33.8007 7.28 33.9847 7.512C34.1687 7.744 34.4407 7.86 34.8007 7.86C35.1207 7.86 35.3727 7.776 35.5567 7.608C35.7487 7.432 35.8887 7.204 35.9767 6.924L37.3567 7.524C37.1487 8.124 36.8247 8.564 36.3847 8.844C35.9527 9.124 35.4247 9.264 34.8007 9.264Z" fill="white"/>
<path d="M42.6119 10.776C42.2839 10.776 42.0159 10.676 41.8079 10.476C41.6079 10.276 41.5079 9.996 41.5079 9.636V7.068C41.5079 6.716 41.3959 6.452 41.1719 6.276C40.9559 6.092 40.6799 6 40.3439 6V4.764C40.6799 4.764 40.9559 4.676 41.1719 4.5C41.3959 4.316 41.5079 4.052 41.5079 3.708V1.14C41.5079 0.780002 41.6079 0.500002 41.8079 0.300003C42.0159 0.100002 42.2839 2.14577e-06 42.6119 2.14577e-06H43.8239V1.104H42.9119V3.804C42.9119 3.996 42.8799 4.18 42.8159 4.356C42.7519 4.524 42.6639 4.676 42.5519 4.812C42.4399 4.948 42.3079 5.064 42.1559 5.16C42.0119 5.248 41.8559 5.308 41.6879 5.34V5.436C41.8559 5.468 42.0119 5.532 42.1559 5.628C42.3079 5.716 42.4399 5.828 42.5519 5.964C42.6639 6.1 42.7519 6.256 42.8159 6.432C42.8799 6.6 42.9119 6.78 42.9119 6.972V9.672H43.8239V10.776H42.6119ZM88.0941 2.14577e-06C88.4141 2.14577e-06 88.6781 0.100002 88.8861 0.300003C89.0941 0.500002 89.1981 0.780002 89.1981 1.14V3.708C89.1981 4.052 89.3061 4.316 89.5221 4.5C89.7381 4.676 90.0141 4.764 90.3501 4.764V6C90.0141 6 89.7381 6.092 89.5221 6.276C89.3061 6.452 89.1981 6.716 89.1981 7.068V9.636C89.1981 9.996 89.0941 10.276 88.8861 10.476C88.6781 10.676 88.4141 10.776 88.0941 10.776H86.8701V9.672H87.7941V6.96C87.7941 6.768 87.8261 6.588 87.8901 6.42C87.9541 6.244 88.0381 6.088 88.1421 5.952C88.2541 5.816 88.3821 5.704 88.5261 5.616C88.6781 5.52 88.8381 5.456 89.0061 5.424V5.34C88.8381 5.308 88.6781 5.248 88.5261 5.16C88.3821 5.064 88.2541 4.948 88.1421 4.812C88.0381 4.676 87.9541 4.524 87.8901 4.356C87.8261 4.18 87.7941 3.996 87.7941 3.804V1.104H86.8701V2.14577e-06H88.0941Z" fill="#2B7FFF"/>
<path d="M48.0873 9.12L45.3033 0.744003H46.3833L47.7633 4.968L48.6873 8.112H48.7473L49.6953 4.968L51.0873 0.744003H52.1313L49.3113 9.12H48.0873ZM57.1725 9.12C56.8125 9.12 56.5525 9.024 56.3925 8.832C56.2405 8.64 56.1445 8.4 56.1045 8.112H56.0445C55.9085 8.496 55.6845 8.784 55.3725 8.976C55.0605 9.168 54.6885 9.264 54.2565 9.264C53.6005 9.264 53.0885 9.096 52.7205 8.76C52.3605 8.424 52.1805 7.968 52.1805 7.392C52.1805 6.808 52.3925 6.36 52.8165 6.048C53.2485 5.736 53.9165 5.58 54.8205 5.58H56.0445V4.968C56.0445 4.528 55.9245 4.192 55.6845 3.96C55.4445 3.728 55.0765 3.612 54.5805 3.612C54.2045 3.612 53.8885 3.696 53.6325 3.864C53.3845 4.032 53.1765 4.256 53.0085 4.536L52.4325 3.996C52.6005 3.66 52.8685 3.376 53.2365 3.144C53.6045 2.904 54.0685 2.784 54.6285 2.784C55.3805 2.784 55.9645 2.968 56.3805 3.336C56.7965 3.704 57.0045 4.216 57.0045 4.872V8.28H57.7125V9.12H57.1725ZM54.4125 8.448C54.6525 8.448 54.8725 8.42 55.0725 8.364C55.2725 8.308 55.4445 8.228 55.5885 8.124C55.7325 8.02 55.8445 7.9 55.9245 7.764C56.0045 7.628 56.0445 7.48 56.0445 7.32V6.3H54.7725C54.2205 6.3 53.8165 6.38 53.5605 6.54C53.3125 6.7 53.1885 6.932 53.1885 7.236V7.488C53.1885 7.792 53.2965 8.028 53.5125 8.196C53.7365 8.364 54.0365 8.448 54.4125 8.448ZM58.7227 9.12V2.928H59.6827V4.068H59.7427C59.8547 3.772 60.0547 3.508 60.3427 3.276C60.6307 3.044 61.0267 2.928 61.5307 2.928H61.9027V3.888H61.3387C60.8187 3.888 60.4107 3.988 60.1147 4.188C59.8267 4.38 59.6827 4.624 59.6827 4.92V9.12H58.7227ZM63.2489 1.476C63.0409 1.476 62.8889 1.428 62.7929 1.332C62.7049 1.228 62.6609 1.096 62.6609 0.936002V0.780002C62.6609 0.620002 62.7049 0.492002 62.7929 0.396002C62.8889 0.292002 63.0409 0.240003 63.2489 0.240003C63.4569 0.240003 63.6049 0.292002 63.6929 0.396002C63.7889 0.492002 63.8369 0.620002 63.8369 0.780002V0.936002C63.8369 1.096 63.7889 1.228 63.6929 1.332C63.6049 1.428 63.4569 1.476 63.2489 1.476ZM62.7689 2.928H63.7289V9.12H62.7689V2.928ZM69.9089 9.12C69.5489 9.12 69.2889 9.024 69.1289 8.832C68.9769 8.64 68.8809 8.4 68.8409 8.112H68.7809C68.6449 8.496 68.4209 8.784 68.1089 8.976C67.7969 9.168 67.4249 9.264 66.9929 9.264C66.3369 9.264 65.8249 9.096 65.4569 8.76C65.0969 8.424 64.9169 7.968 64.9169 7.392C64.9169 6.808 65.1289 6.36 65.5529 6.048C65.9849 5.736 66.6529 5.58 67.5569 5.58H68.7809V4.968C68.7809 4.528 68.6609 4.192 68.4209 3.96C68.1809 3.728 67.8129 3.612 67.3169 3.612C66.9409 3.612 66.6249 3.696 66.3689 3.864C66.1209 4.032 65.9129 4.256 65.7449 4.536L65.1689 3.996C65.3369 3.66 65.6049 3.376 65.9729 3.144C66.3409 2.904 66.8049 2.784 67.3649 2.784C68.1169 2.784 68.7009 2.968 69.1169 3.336C69.5329 3.704 69.7409 4.216 69.7409 4.872V8.28H70.4489V9.12H69.9089ZM67.1489 8.448C67.3889 8.448 67.6089 8.42 67.8089 8.364C68.0089 8.308 68.1809 8.228 68.3249 8.124C68.4689 8.02 68.5809 7.9 68.6609 7.764C68.7409 7.628 68.7809 7.48 68.7809 7.32V6.3H67.5089C66.9569 6.3 66.5529 6.38 66.2969 6.54C66.0489 6.7 65.9249 6.932 65.9249 7.236V7.488C65.9249 7.792 66.0329 8.028 66.2489 8.196C66.4729 8.364 66.7729 8.448 67.1489 8.448ZM71.4591 9.12V2.928H72.4191V3.936H72.4671C72.6191 3.584 72.8311 3.304 73.1031 3.096C73.3831 2.888 73.7551 2.784 74.2191 2.784C74.8591 2.784 75.3631 2.992 75.7311 3.408C76.1071 3.816 76.2951 4.396 76.2951 5.148V9.12H75.3351V5.316C75.3351 4.204 74.8671 3.648 73.9311 3.648C73.7391 3.648 73.5511 3.672 73.3671 3.72C73.1911 3.768 73.0311 3.84 72.8871 3.936C72.7431 4.032 72.6271 4.156 72.5391 4.308C72.4591 4.452 72.4191 4.624 72.4191 4.824V9.12H71.4591ZM79.2874 9.12C78.9514 9.12 78.6954 9.028 78.5194 8.844C78.3514 8.652 78.2674 8.404 78.2674 8.1V3.768H77.2474V2.928H77.8234C78.0314 2.928 78.1714 2.888 78.2434 2.808C78.3234 2.72 78.3634 2.572 78.3634 2.364V1.212H79.2274V2.928H80.5834V3.768H79.2274V8.28H80.4874V9.12H79.2874ZM83.6264 9.264C83.0504 9.264 82.5664 9.156 82.1744 8.94C81.7904 8.716 81.4584 8.42 81.1784 8.052L81.8624 7.5C82.1024 7.804 82.3704 8.04 82.6664 8.208C82.9624 8.368 83.3064 8.448 83.6984 8.448C84.1064 8.448 84.4224 8.36 84.6464 8.184C84.8784 8.008 84.9944 7.76 84.9944 7.44C84.9944 7.2 84.9144 6.996 84.7544 6.828C84.6024 6.652 84.3224 6.532 83.9144 6.468L83.4224 6.396C83.1344 6.356 82.8704 6.296 82.6304 6.216C82.3904 6.128 82.1784 6.016 81.9944 5.88C81.8184 5.736 81.6784 5.56 81.5744 5.352C81.4784 5.144 81.4304 4.896 81.4304 4.608C81.4304 4.304 81.4864 4.04 81.5984 3.816C81.7104 3.584 81.8624 3.392 82.0544 3.24C82.2544 3.088 82.4904 2.976 82.7624 2.904C83.0344 2.824 83.3264 2.784 83.6384 2.784C84.1424 2.784 84.5624 2.872 84.8984 3.048C85.2424 3.224 85.5424 3.468 85.7984 3.78L85.1624 4.356C85.0264 4.164 84.8264 3.992 84.5624 3.84C84.2984 3.68 83.9664 3.6 83.5664 3.6C83.1664 3.6 82.8624 3.688 82.6544 3.864C82.4544 4.032 82.3544 4.264 82.3544 4.56C82.3544 4.864 82.4544 5.084 82.6544 5.22C82.8624 5.356 83.1584 5.456 83.5424 5.52L84.0224 5.592C84.7104 5.696 85.1984 5.896 85.4864 6.192C85.7744 6.48 85.9184 6.86 85.9184 7.332C85.9184 7.932 85.7144 8.404 85.3064 8.748C84.8984 9.092 84.3384 9.264 83.6264 9.264Z" fill="white"/>
<path d="M45.0633 11.664C44.8843 11.664 44.7393 11.8091 44.7393 11.988C44.7393 12.1669 44.8843 12.312 45.0633 12.312V11.988V11.664ZM45.0633 11.988V12.312C45.6486 12.312 45.9484 11.9544 46.1576 11.7154C46.3737 11.4685 46.4991 11.34 46.7643 11.34V11.016V10.692C46.1789 10.692 45.8791 11.0496 45.6699 11.2886C45.4539 11.5356 45.3284 11.664 45.0633 11.664V11.988Z" fill="white"/>
<path d="M46.7643 11.016V11.34C47.0294 11.34 47.1549 11.4685 47.3709 11.7154C47.5801 11.9544 47.8799 12.312 48.4653 12.312V11.988V11.664C48.2001 11.664 48.0747 11.5356 47.8586 11.2886C47.6494 11.0496 47.3496 10.692 46.7643 10.692V11.016Z" fill="white"/>
<path d="M48.4653 11.988V12.312C49.0506 12.312 49.3504 11.9544 49.5596 11.7154C49.7757 11.4685 49.9011 11.34 50.1663 11.34V11.016V10.692C49.5809 10.692 49.2811 11.0496 49.0719 11.2886C48.8559 11.5356 48.7304 11.664 48.4653 11.664V11.988Z" fill="white"/>
<path d="M50.1663 11.016V11.34C50.4314 11.34 50.5569 11.4685 50.7729 11.7154C50.9821 11.9544 51.2819 12.312 51.8673 12.312V11.988V11.664C51.6021 11.664 51.4767 11.5356 51.2606 11.2886C51.0514 11.0496 50.7516 10.692 50.1663 10.692V11.016Z" fill="white"/>
<path d="M51.8673 11.988V12.312C52.4526 12.312 52.7524 11.9544 52.9616 11.7154C53.1777 11.4685 53.3031 11.34 53.5683 11.34V11.016V10.692C52.9829 10.692 52.6831 11.0496 52.4739 11.2886C52.2579 11.5356 52.1324 11.664 51.8673 11.664V11.988Z" fill="white"/>
<path d="M53.5683 11.016V11.34C53.8334 11.34 53.9589 11.4685 54.1749 11.7154C54.3841 11.9544 54.6839 12.312 55.2693 12.312V11.988V11.664C55.0041 11.664 54.8787 11.5356 54.6626 11.2886C54.4534 11.0496 54.1536 10.692 53.5683 10.692V11.016Z" fill="white"/>
<path d="M55.2693 11.988V12.312C55.8546 12.312 56.1544 11.9544 56.3636 11.7154C56.5797 11.4685 56.7051 11.34 56.9703 11.34V11.016V10.692C56.3849 10.692 56.0851 11.0496 55.8759 11.2886C55.6599 11.5356 55.5344 11.664 55.2693 11.664V11.988Z" fill="white"/>
<path d="M56.9703 11.016V11.34C57.2354 11.34 57.3609 11.4685 57.5769 11.7154C57.7861 11.9544 58.0859 12.312 58.6713 12.312V11.988V11.664C58.4061 11.664 58.2807 11.5356 58.0646 11.2886C57.8554 11.0496 57.5556 10.692 56.9703 10.692V11.016Z" fill="white"/>
<path d="M58.6713 11.988V12.312C59.2566 12.312 59.5564 11.9544 59.7656 11.7154C59.9817 11.4685 60.1071 11.34 60.3723 11.34V11.016V10.692C59.7869 10.692 59.4871 11.0496 59.2779 11.2886C59.0619 11.5356 58.9364 11.664 58.6713 11.664V11.988Z" fill="white"/>
<path d="M60.3723 11.016V11.34C60.6374 11.34 60.7629 11.4685 60.9789 11.7154C61.1881 11.9544 61.4879 12.312 62.0733 12.312V11.988V11.664C61.8081 11.664 61.6827 11.5356 61.4666 11.2886C61.2574 11.0496 60.9576 10.692 60.3723 10.692V11.016Z" fill="white"/>
<path d="M62.0733 11.988V12.312C62.6586 12.312 62.9584 11.9544 63.1676 11.7154C63.3837 11.4685 63.5091 11.34 63.7743 11.34V11.016V10.692C63.1889 10.692 62.8891 11.0496 62.6799 11.2886C62.4639 11.5356 62.3384 11.664 62.0733 11.664V11.988Z" fill="white"/>
<path d="M63.7743 11.016V11.34C64.0394 11.34 64.1649 11.4685 64.3809 11.7154C64.5902 11.9545 64.8899 12.312 65.4753 12.312V11.988V11.664C65.2101 11.664 65.0847 11.5356 64.8686 11.2886C64.6594 11.0496 64.3596 10.692 63.7743 10.692V11.016Z" fill="white"/>
<path d="M65.4753 11.988V12.312C66.0606 12.312 66.3604 11.9545 66.5696 11.7154C66.7857 11.4685 66.9111 11.34 67.1763 11.34V11.016V10.692C66.591 10.692 66.2912 11.0496 66.0819 11.2886C65.8659 11.5356 65.7404 11.664 65.4753 11.664V11.988Z" fill="white"/>
<path d="M67.1763 11.016V11.34C67.4415 11.34 67.5669 11.4685 67.783 11.7154C67.9922 11.9545 68.292 12.312 68.8773 12.312V11.988V11.664C68.6121 11.664 68.4867 11.5356 68.2706 11.2886C68.0614 11.0496 67.7616 10.692 67.1763 10.692V11.016Z" fill="white"/>
<path d="M68.8773 11.988V12.312C69.4626 12.312 69.7624 11.9545 69.9716 11.7154C70.1877 11.4685 70.3131 11.34 70.5783 11.34V11.016V10.692C69.993 10.692 69.6932 11.0496 69.484 11.2886C69.2679 11.5356 69.1425 11.664 68.8773 11.664V11.988Z" fill="white"/>
<path d="M70.5783 11.016V11.34C70.8435 11.34 70.9689 11.4685 71.185 11.7154C71.3942 11.9545 71.694 12.312 72.2793 12.312V11.988V11.664C72.0141 11.664 71.8887 11.5356 71.6726 11.2886C71.4634 11.0496 71.1636 10.692 70.5783 10.692V11.016Z" fill="white"/>
<path d="M72.2793 11.988V12.312C72.8646 12.312 73.1644 11.9545 73.3736 11.7154C73.5897 11.4685 73.7151 11.34 73.9803 11.34V11.016V10.692C73.395 10.692 73.0952 11.0496 72.886 11.2886C72.6699 11.5356 72.5445 11.664 72.2793 11.664V11.988Z" fill="white"/>
<path d="M73.9803 11.016V11.34C74.2455 11.34 74.3709 11.4685 74.587 11.7154C74.7962 11.9545 75.096 12.312 75.6813 12.312V11.988V11.664C75.4161 11.664 75.2907 11.5356 75.0746 11.2886C74.8654 11.0496 74.5656 10.692 73.9803 10.692V11.016Z" fill="white"/>
<path d="M75.6813 11.988V12.312C76.2666 12.312 76.5664 11.9545 76.7756 11.7154C76.9917 11.4685 77.1171 11.34 77.3823 11.34V11.016V10.692C76.797 10.692 76.4972 11.0496 76.288 11.2886C76.0719 11.5356 75.9465 11.664 75.6813 11.664V11.988Z" fill="white"/>
<path d="M77.3823 11.016V11.34C77.6475 11.34 77.7729 11.4685 77.989 11.7154C78.1982 11.9545 78.498 12.312 79.0833 12.312V11.988V11.664C78.8181 11.664 78.6927 11.5356 78.4766 11.2886C78.2674 11.0496 77.9676 10.692 77.3823 10.692V11.016Z" fill="white"/>
<path d="M79.0833 11.988V12.312C79.6686 12.312 79.9684 11.9545 80.1776 11.7154C80.3937 11.4685 80.5191 11.34 80.7843 11.34V11.016V10.692C80.199 10.692 79.8992 11.0496 79.69 11.2886C79.4739 11.5356 79.3485 11.664 79.0833 11.664V11.988Z" fill="white"/>
<path d="M80.7843 11.016V11.34C81.0495 11.34 81.1749 11.4685 81.391 11.7154C81.6002 11.9545 81.9 12.312 82.4853 12.312V11.988V11.664C82.2202 11.664 82.0947 11.5356 81.8787 11.2886C81.6694 11.0496 81.3697 10.692 80.7843 10.692V11.016Z" fill="white"/>
<path d="M82.4853 11.988V12.312C83.0707 12.312 83.3705 11.9545 83.5797 11.7154C83.7957 11.4685 83.9212 11.34 84.1863 11.34V11.016V10.692C83.601 10.692 83.3012 11.0496 83.092 11.2886C82.8759 11.5356 82.7505 11.664 82.4853 11.664V11.988Z" fill="white"/>
<path d="M84.1863 11.016V11.34C84.4515 11.34 84.5769 11.4685 84.793 11.7154C85.0022 11.9545 85.302 12.312 85.8873 12.312V11.988V11.664C85.6222 11.664 85.4967 11.5356 85.2807 11.2886C85.0715 11.0496 84.7717 10.692 84.1863 10.692V11.016ZM85.8873 12.312C86.0663 12.312 86.2113 12.1669 86.2113 11.988C86.2113 11.8091 86.0663 11.664 85.8873 11.664V11.988V12.312Z" fill="white"/>
</svg>
